<svg width="61" height="15" viewBox="0 0 61 15" fill="none" xmlns="http://www.w3.org/2000/svg">
<path d="M9.04791 2.94C8.95449 3.09333 8.85774 3.20667 8.75766 3.28C8.66424 3.34667 8.54081 3.38 8.38734 3.38C8.24055 3.38 8.08041 3.33 7.90693 3.23C7.74012 3.12333 7.54329 3.01 7.31643 2.89C7.08957 2.77 6.82934 2.66 6.53576 2.56C6.24217 2.45333 5.89855 2.4 5.50488 2.4C4.81095 2.4 4.29051 2.55667 3.94354 2.87C3.59658 3.17667 3.4231 3.58 3.4231 4.08C3.4231 4.4 3.51651 4.66667 3.70334 4.88C3.89684 5.08667 4.14705 5.26667 4.45398 5.42C4.76758 5.57333 5.12122 5.71 5.51489 5.83C5.90856 5.95 6.31223 6.08333 6.72592 6.23C7.13961 6.37 7.54329 6.53667 7.93696 6.73C8.33063 6.92333 8.68093 7.16667 8.98785 7.46C9.30146 7.75333 9.55167 8.11333 9.7385 8.54C9.932 8.96 10.0287 9.47333 10.0287 10.08C10.0287 10.74 9.91198 11.36 9.67844 11.94C9.45158 12.5133 9.1213 13.0167 8.6876 13.45C8.25389 13.8767 7.71677 14.2133 7.07622 14.46C6.44235 14.7067 5.72173 14.83 4.91437 14.83C4.45398 14.83 3.99359 14.7833 3.53319 14.69C3.07947 14.5967 2.63909 14.4667 2.21206 14.3C1.7917 14.1333 1.3947 13.9333 1.02105 13.7C0.647393 13.4667 0.320446 13.2067 0.0402069 12.92L0.92096 11.5C0.994356 11.3933 1.09111 11.3067 1.21121 11.24C1.33131 11.1667 1.45809 11.13 1.59153 11.13C1.77169 11.13 1.96185 11.1967 2.16202 11.33C2.36219 11.4633 2.59239 11.61 2.85261 11.77C3.11283 11.93 3.41309 12.0767 3.75338 12.21C4.10034 12.3433 4.51403 12.41 4.99444 12.41C5.69504 12.41 6.2355 12.25 6.61583 11.93C7.00283 11.61 7.19632 11.1333 7.19632 10.5C7.19632 10.1333 7.09957 9.83667 6.90608 9.61C6.71925 9.38333 6.47237 9.19333 6.16544 9.04C5.85851 8.88667 5.50821 8.75667 5.11454 8.65C4.72087 8.53667 4.3172 8.41333 3.90351 8.28C3.48982 8.14667 3.08614 7.98667 2.69247 7.8C2.2988 7.61333 1.9485 7.36667 1.64158 7.06C1.33465 6.75333 1.08443 6.37333 0.890934 5.92C0.704108 5.46667 0.610695 4.90333 0.610695 4.23C0.610695 3.69 0.717452 3.16667 0.930968 2.66C1.14448 2.15333 1.45809 1.70333 1.87177 1.31C2.28546 0.916667 2.79256 0.6 3.39307 0.36C4.00026 0.12 4.69418 0 5.47485 0C6.34893 0 7.15629 0.136667 7.89692 0.41C8.64423 0.676667 9.27477 1.05 9.78854 1.53L9.04791 2.94Z" fill="white"/>
<path d="M27.8396 7.41C27.8396 8.47 27.6594 9.45333 27.2991 10.36C26.9455 11.2667 26.4417 12.05 25.7878 12.71C25.1406 13.37 24.36 13.89 23.4458 14.27C22.5317 14.6433 21.5175 14.83 20.4032 14.83C19.289 14.83 18.2748 14.6433 17.3606 14.27C16.4465 13.89 15.6625 13.37 15.0086 12.71C14.3547 12.05 13.8476 11.2667 13.4873 10.36C13.1337 9.45333 12.9569 8.47 12.9569 7.41C12.9569 6.35 13.1337 5.37 13.4873 4.47C13.8476 3.56333 14.3547 2.78 15.0086 2.12C15.6625 1.46 16.4465 0.943334 17.3606 0.57C18.2748 0.19 19.289 0 20.4032 0C21.5175 0 22.5317 0.19 23.4458 0.57C24.36 0.943334 25.1406 1.46333 25.7878 2.13C26.4417 2.79 26.9455 3.57333 27.2991 4.48C27.6594 5.38 27.8396 6.35667 27.8396 7.41ZM24.767 7.41C24.767 6.65 24.6669 5.97 24.4667 5.37C24.2665 4.76333 23.9763 4.25 23.596 3.83C23.2223 3.40333 22.7653 3.08 22.2248 2.86C21.691 2.63333 21.0838 2.52 20.4032 2.52C19.7227 2.52 19.1121 2.63333 18.5717 2.86C18.0312 3.08 17.5708 3.40333 17.1905 3.83C16.8168 4.25 16.5299 4.76333 16.3298 5.37C16.1296 5.97 16.0295 6.65 16.0295 7.41C16.0295 8.17667 16.1296 8.86333 16.3298 9.47C16.5299 10.07 16.8168 10.58 17.1905 11C17.5708 11.42 18.0312 11.7433 18.5717 11.97C19.1121 12.19 19.7227 12.3 20.4032 12.3C21.0838 12.3 21.691 12.19 22.2248 11.97C22.7653 11.7433 23.2223 11.42 23.596 11C23.9763 10.58 24.2665 10.07 24.4667 9.47C24.6669 8.86333 24.767 8.17667 24.767 7.41Z" fill="white"/>
<path d="M40.2511 12.23V14.67H31.6338V0.16H34.6363V12.23H40.2511Z" fill="white"/>
<path d="M46.7159 14.67H43.6933V0.16H46.7159V14.67Z" fill="white"/>
<path d="M59.2213 2.94C59.1278 3.09333 59.0311 3.20667 58.931 3.28C58.8376 3.34667 58.7142 3.38 58.5607 3.38C58.4139 3.38 58.2538 3.33 58.0803 3.23C57.9135 3.12333 57.7166 3.01 57.4898 2.89C57.2629 2.77 57.0027 2.66 56.7091 2.56C56.4155 2.45333 56.0719 2.4 55.6782 2.4C54.9843 2.4 54.4639 2.55667 54.1169 2.87C53.7699 3.17667 53.5965 3.58 53.5965 4.08C53.5965 4.4 53.6899 4.66667 53.8767 4.88C54.0702 5.08667 54.3204 5.26667 54.6273 5.42C54.9409 5.57333 55.2946 5.71 55.6882 5.83C56.0819 5.95 56.4856 6.08333 56.8993 6.23C57.313 6.37 57.7166 6.53667 58.1103 6.73C58.504 6.92333 58.8543 7.16667 59.1612 7.46C59.4748 7.75333 59.725 8.11333 59.9118 8.54C60.1053 8.96 60.2021 9.47333 60.2021 10.08C60.2021 10.74 60.0853 11.36 59.8518 11.94C59.6249 12.5133 59.2947 13.0167 58.861 13.45C58.4272 13.8767 57.8901 14.2133 57.2496 14.46C56.6157 14.7067 55.8951 14.83 55.0877 14.83C54.6273 14.83 54.1669 14.7833 53.7065 14.69C53.2528 14.5967 52.8124 14.4667 52.3854 14.3C51.9651 14.1333 51.5681 13.9333 51.1944 13.7C50.8207 13.4667 50.4938 13.2067 50.2136 12.92L51.0943 11.5C51.1677 11.3933 51.2645 11.3067 51.3846 11.24C51.5047 11.1667 51.6314 11.13 51.7649 11.13C51.945 11.13 52.1352 11.1967 52.3354 11.33C52.5355 11.4633 52.7657 11.61 53.026 11.77C53.2862 11.93 53.5864 12.0767 53.9267 12.21C54.2737 12.3433 54.6874 12.41 55.1678 12.41C55.8684 12.41 56.4089 12.25 56.7892 11.93C57.1762 11.61 57.3697 11.1333 57.3697 10.5C57.3697 10.1333 57.2729 9.83667 57.0794 9.61C56.8926 9.38333 56.6457 9.19333 56.3388 9.04C56.0319 8.88667 55.6816 8.75667 55.2879 8.65C54.8942 8.53667 54.4905 8.41333 54.0769 8.28C53.6632 8.14667 53.2595 7.98667 52.8658 7.8C52.4722 7.61333 52.1219 7.36667 51.8149 7.06C51.508 6.75333 51.2578 6.37333 51.0643 5.92C50.8775 5.46667 50.784 4.90333 50.784 4.23C50.784 3.69 50.8908 3.16667 51.1043 2.66C51.3178 2.15333 51.6314 1.70333 52.0451 1.31C52.4588 0.916667 52.9659 0.6 53.5664 0.36C54.1736 0.12 54.8675 0 55.6482 0C56.5223 0 57.3296 0.136667 58.0703 0.41C58.8176 0.676667 59.4481 1.05 59.9619 1.53L59.2213 2.94Z" fill="white"/>
</svg>
